PathFileType	4	(X/Y/Z)	/Users/niels/Desktop/University/Third Semester/Perception and Action/Exam/Gymnastics Motion Tracking/Code for Gym Tracking/Analyzed Data/Webcam_Backflip/id8_4_baseline_Sports2D/id8_4_baseline_Sports2D_px_person00.trc
DataRate	CameraRate	NumFrames	NumMarkers	Units	OrigDataRate	OrigDataStartFrame	OrigNumFrames
29.81132075471698	29.81132075471698	9	22	m	29.81132075471698	139	159
Frame#	Time	Hip			RHip			RKnee			RAnkle			RBigToe			RSmallToe			RHeel			LHip			LKnee			LAnkle			LBigToe			LSmallToe			LHeel			Neck			Head			Nose			RShoulder			RElbow			RWrist			LShoulder			LElbow			LWrist		
		X1	Y1	Z1	X2	Y2	Z2	X3	Y3	Z3	X4	Y4	Z4	X5	Y5	Z5	X6	Y6	Z6	X7	Y7	Z7	X8	Y8	Z8	X9	Y9	Z9	X10	Y10	Z10	X11	Y11	Z11	X12	Y12	Z12	X13	Y13	Z13	X14	Y14	Z14	X15	Y15	Z15	X16	Y16	Z16	X17	Y17	Z17	X18	Y18	Z18	X19	Y19	Z19	X20	Y20	Z20	X21	Y21	Z21	X22	Y22	Z22
139	4.662658227848101	0.9754037049297262	-0.588650656610071	0.0	0.974179984213338	-0.5874525173670841	0.0	0.9726259629619947	-0.6865392423162875	0.0	0.9657554472321302	-0.7797425706102216	0.0	1.0032648910157538	-0.7992131618298303	0.0	0.9889275820374426	-0.8015964656885715	0.0	0.9608656788588132	-0.7968045181448402	0.0	0.9781067078003975	-0.5878074457690143	0.0	0.9763768377306439	-0.6861492787781123	0.0	0.969824671045955	-0.7745877835762135	0.0	1.003254853083541	-0.7944984304618349	0.0	1.0003327232206625	-0.7921194069609286	0.0	0.9614751086037768	-0.7891384595300212	0.0	0.9966964353755532	-0.4616702459359627	0.0	1.0318262893553638	-0.4066298093680476	0.0	1.0310424763646622	-0.4450577165558827	0.0	0.9835766267161841	-0.47622300311928484	0.0	0.9712897918310225	-0.5411203019293822	0.0	0.9872042014719569	-0.5968928777639869	0.0	0.9926192200667817	-0.47847636422194295	0.0	0.9807168749051601	-0.5387907028117254	0.0	0.9913128665560517	-0.5930527282612816	0.0
140	4.69620253164557	0.9758036555090069	-0.588928782516614	0.0	0.974610280868548	-0.5878235332335604	0.0	0.9729368851365979	-0.6865252980872952	0.0	0.9654974617226846	-0.7794619730475334	0.0	1.0025784353470857	-0.7992748356970631	0.0	0.9887352918079615	-0.8015701206814502	0.0	0.9605961020072556	-0.7965133805653076	0.0	0.9784449987640281	-0.5880398141628932	0.0	0.9763027128339843	-0.6861050511120754	0.0	0.9696659333076338	-0.7745116993506483	0.0	1.0029165856106916	-0.7945980261162242	0.0	0.9998636645112785	-0.7922425104101244	0.0	0.9611922898099053	-0.7891089158041797	0.0	0.9972488327630016	-0.4615470967613588	0.0	1.0322449933634186	-0.40671745098197676	0.0	1.0315039615480053	-0.44534966049621494	0.0	0.9842098696322675	-0.47635549776491365	0.0	0.9723305749637251	-0.5416024784198924	0.0	0.9889014375835689	-0.597524244204974	0.0	0.9929610603975669	-0.4783597129826279	0.0	0.9811580251244243	-0.539248487700743	0.0	0.992305644857155	-0.5935244799633609	0.0
141	4.729746835443038	0.9762878882928104	-0.5883712068633572	0.0	0.9751267930340706	-0.5873187918644656	0.0	0.9732782126465337	-0.6858116394055285	0.0	0.9653664913107951	-0.7786507858968419	0.0	1.0021459538937458	-0.7987195462681269	0.0	0.9887930671128966	-0.8010017011886567	0.0	0.9604728685593199	-0.7957133505094003	0.0	0.9788427520042857	-0.5874216745451781	0.0	0.9763030447898717	-0.6853289334061899	0.0	0.9695220175446315	-0.7739589545511422	0.0	1.0026397962366795	-0.7941683889177936	0.0	0.9994559723874206	-0.7918740177817185	0.0	0.9609508493289292	-0.788545702907465	0.0	0.9978793438568702	-0.4609207041792763	0.0	1.0331200002467482	-0.40637025837617885	0.0	1.0321626150201755	-0.44503095925025066	0.0	0.9848858262087025	-0.4758734054411365	0.0	0.9732723409225829	-0.5411708300370583	0.0	0.9904622637123239	-0.5971110205786514	0.0	0.9932733688708353	-0.47763708429128837	0.0	0.9816353585657761	-0.538881179605444	0.0	0.9932980438251724	-0.5930643059490935	0.0
142	4.763291139240506	0.9768869365769592	-0.5871705489413719	0.0	0.9757002362821469	-0.5860975060629657	0.0	0.9735700172559852	-0.6845139592054044	0.0	0.9653515625096609	-0.7774172136205496	0.0	1.0019802577366415	-0.7977029939164881	0.0	0.98905048155662	-0.7999956195472534	0.0	0.9605180523853991	-0.7944904624590108	0.0	0.9793658685189927	-0.5861303940898508	0.0	0.9763554029747494	-0.683983745467387	0.0	0.9694474638346533	-0.7729732735895183	0.0	1.002416398436916	-0.7933411632876572	0.0	0.9991537629486403	-0.7911238237494486	0.0	0.9608641503800437	-0.7874571299342419	0.0	0.9985819722178811	-0.4599019298354108	0.0	1.0345133391156625	-0.40565353020753425	0.0	1.033050725086334	-0.4441845766277043	0.0	0.9855774204957292	-0.474835994074333	0.0	0.9740515406152355	-0.5399377239534016	0.0	0.9917547561476865	-0.595692618810882	0.0	0.9936433793060437	-0.4764586341113918	0.0	0.9821854081281157	-0.5377634416722714	0.0	0.9943227885137715	-0.5917598903703425	0.0
143	4.796835443037974	0.9775851769925178	-0.5855881968039338	0.0	0.9762930173310765	-0.5844363112856081	0.0	0.9737583885186616	-0.6828328550714624	0.0	0.9654589058565124	-0.7759706423243977	0.0	1.0020441121526567	-0.7964564047969963	0.0	0.989461258502465	-0.798728263892122	0.0	0.9607268267799578	-0.7930027596534001	0.0	0.9800410392484206	-0.58443879038246	0.0	0.9764368524822323	-0.6823294150935888	0.0	0.9694729413610459	-0.7716826478427842	0.0	1.002248841436776	-0.7922896301182873	0.0	0.9990099338704711	-0.7901740393374845	0.0	0.9609930044836786	-0.7859786897483926	0.0	0.9993682739514631	-0.4586182739245674	0.0	1.0363248575679131	-0.4047116255696686	0.0	1.034132349201192	-0.4429876257062579	0.0	0.9862793847860943	-0.4733609633878672	0.0	0.9746416769770472	-0.5380985583953546	0.0	0.992755931363261	-0.593486357925514	0.0	0.9941729737938905	-0.4750141803092009	0.0	0.9828618857211701	-0.5360940274873467	0.0	0.9954823661290101	-0.5898028343726137	0.0
144	4.830379746835443	0.9782934144697167	-0.5838639242573616	0.0	0.9768523399207079	-0.5826124250208818	0.0	0.9738449661714297	-0.6810117527164722	0.0	0.96567445998289	-0.7745493774996102	0.0	1.0023047023305889	-0.7951908707226253	0.0	0.9899911599902358	-0.7973987110684219	0.0	0.961019736368861	-0.7914270234957395	0.0	0.9808239124818824	-0.5826109720176914	0.0	0.9765502063417328	-0.6806122160564495	0.0	0.9695765672551108	-0.7702761391861134	0.0	1.002153952683063	-0.791175992727855	0.0	0.9990701415617103	-0.7891973917284398	0.0	0.9612723334391456	-0.7843404128983233	0.0	1.0002502998139697	-0.4572034612070886	0.0	1.0383109596793472	-0.4036965969569725	0.0	1.035319281188694	-0.4416788411605658	0.0	0.9869931175499627	-0.47161984716898675	0.0	0.9750664547143746	-0.5359049337646794	0.0	0.9935191690978569	-0.590854910480274	0.0	0.9948970548443813	-0.47348980916258143	0.0	0.9836828005086432	-0.5341626396331296	0.0	0.9968668471941492	-0.5874664128897096	0.0
145	4.863924050632911	0.9789154765971397	-0.5821925936270436	0.0	0.9773200738421669	-0.5808476797574891	0.0	0.9738768166581661	-0.6792870264115773	0.0	0.9659526003538192	-0.773327723432476	0.0	1.0027279013536057	-0.7940490321606569	0.0	0.9906048729361693	-0.7961859692124721	0.0	0.9612752214035716	-0.7899265282538249	0.0	0.9816234075204575	-0.5808528905840402	0.0	0.9767190421257308	-0.6790096934348067	0.0	0.9696888834236206	-0.768943938391784	0.0	1.0021363809891473	-0.7901291098559013	0.0	0.9993097066492168	-0.7883155798223523	0.0	0.9615421604832689	-0.7827833752099623	0.0	1.00120287548734	-0.45582368944867946	0.0	1.0401712850629292	-0.4027313792061976	0.0	1.0365002988936012	-0.44048411444057844	0.0	0.9877010432492707	-0.4698272873133846	0.0	0.9754030871806114	-0.5336579843839736	0.0	0.9941074456148363	-0.5882703271037322	0.0	0.9957589306921609	-0.47205075603458035	0.0	0.9846500319548888	-0.5323094083982707	0.0	0.9985283442548325	-0.5850895806014451	0.0
146	4.897468354430379	0.9794042062849752	-0.5807164105631346	0.0	0.9776401973086294	-0.5793018697763743	0.0	0.9739141204335595	-0.6778354720025335	0.0	0.9662421857098885	-0.7723985822793835	0.0	1.0032610585240396	-0.7931169742538045	0.0	0.9912749934250347	-0.7952257450064543	0.0	0.9614210948410277	-0.7886737439508271	0.0	0.9823291798222803	-0.5793077813486497	0.0	0.9769523345216853	-0.677636720775946	0.0	0.9697401393188342	-0.7678566167973626	0.0	1.0022021100409435	-0.7892457232019866	0.0	0.9996371243145374	-0.7876060874345766	0.0	0.9616591195971876	-0.7815160091617313	0.0	1.002150662656619	-0.45466631453281203	0.0	1.041659861617803	-0.4019260278513473	0.0	1.0375765972844122	-0.43955482575598265	0.0	0.9883704531483244	-0.4682235757093686	0.0	0.9757446764602367	-0.5316671886299915	0.0	0.9945803312170981	-0.5862119437679895	0.0	0.9966574184994743	-0.4708469342605463	0.0	0.9857759460347226	-0.5308483542065742	0.0	1.0005019669014685	-0.5830065473569813	0.0
147	4.931012658227848	0.9797493290026256	-0.5795357544683485	0.0	0.9777898820649428	-0.578099262446184	0.0	0.9740153120988411	-0.6767634998845325	0.0	0.9665144011440018	-0.7718130774886035	0.0	1.0038426482819485	-0.792452564668843	0.0	0.9919774455894071	-0.7946026082965328	0.0	0.9614710423480934	-0.7878365228160108	0.0	0.9828437630472533	-0.5780829595003802	0.0	0.9772226872477631	-0.676576133596241	0.0	0.969702501458722	-0.767162670214808	0.0	1.0023694260055334	-0.7886033793915606	0.0	0.9999560358263734	-0.7871174410095992	0.0	0.9615794509943938	-0.7806968481386931	0.0	1.0030020452224262	-0.4538829469142739	0.0	1.042666139328688	-0.40138583202428624	0.0	1.0384798584558872	-0.43896206946086164	0.0	0.9889773510023689	-0.46703475947523626	0.0	0.976156490153966	-0.5301898919851895	0.0	0.9950127666470356	-0.5850184036914707	0.0	0.9975020837454556	-0.4700176934928469	0.0	0.9870591081846625	-0.529995139654757	0.0	1.002778286143082	-0.5814627651131707	0.0
